<?xml version="1.0" ?><!DOCTYPE svg  PUBLIC '-//W3C//DTD SVG 1.1//EN'  'http://www.w3.org/Graphics/SVG/1.1/DTD/svg11.dtd'><svg height="512px" style="enable-background:new 0 0 512 512;" version="1.1" viewBox="0 0 512 512" width="512px" xml:space="preserve" xmlns="http://www.w3.org/2000/svg" xmlns:xlink="http://www.w3.org/1999/xlink"><g id="C_-_200_x2C__career_path_x2C__career_x2C__dream_x2C__success_x2C__focus"><g><path d="M133.544,350.004l-27.441-19.779c-0.019-0.014-0.04-0.021-0.058-0.034c-0.052-0.035-0.104-0.068-0.157-0.103    c-0.121-0.076-0.248-0.138-0.373-0.204c-0.094-0.048-0.184-0.107-0.28-0.149c-0.052-0.023-0.105-0.04-0.158-0.061    c-0.125-0.049-0.252-0.082-0.38-0.12c-0.115-0.034-0.227-0.079-0.343-0.104c-0.049-0.011-0.1-0.016-0.149-0.024    c-0.126-0.022-0.252-0.03-0.38-0.043c-0.132-0.013-0.264-0.034-0.396-0.036c-0.022,0-0.043-0.006-0.066-0.006    c-0.024,0-0.046,0.006-0.07,0.007c-0.124,0.002-0.247,0.021-0.371,0.032c-0.137,0.014-0.272,0.021-0.407,0.046    c-0.048,0.009-0.096,0.015-0.144,0.024c-0.111,0.025-0.218,0.067-0.329,0.1c-0.134,0.04-0.269,0.075-0.4,0.127    c-0.05,0.02-0.101,0.036-0.149,0.058c-0.094,0.041-0.183,0.1-0.275,0.147c-0.13,0.066-0.26,0.131-0.384,0.21    c-0.051,0.032-0.101,0.063-0.15,0.098c-0.019,0.015-0.041,0.021-0.061,0.035l-27.445,19.779c-2.099,1.514-2.575,4.442-1.062,6.542    c0.916,1.27,2.35,1.945,3.805,1.945c0.949,0,1.907-0.287,2.735-0.884l20.02-14.429v107.044c0,2.588,2.098,4.686,4.686,4.686    c2.587,0,4.686-2.098,4.686-4.686V343.179l20.016,14.427c0.829,0.598,1.787,0.885,2.736,0.885c1.455,0,2.889-0.676,3.805-1.945    C136.119,354.445,135.643,351.517,133.544,350.004z"/><path d="M438.821,322.441l-27.45-19.778c-0.019-0.014-0.039-0.021-0.059-0.033c-0.052-0.036-0.104-0.068-0.156-0.102    c-0.119-0.077-0.244-0.138-0.369-0.202c-0.096-0.051-0.188-0.111-0.287-0.154c-0.05-0.021-0.102-0.038-0.154-0.059    c-0.121-0.047-0.246-0.08-0.371-0.118c-0.119-0.035-0.234-0.081-0.355-0.106c-0.047-0.012-0.097-0.016-0.146-0.024    c-0.122-0.022-0.245-0.029-0.37-0.042c-0.137-0.014-0.272-0.034-0.41-0.036c-0.021,0-0.041-0.007-0.062-0.007    c-0.024,0-0.047,0.007-0.071,0.008c-0.12,0.002-0.24,0.02-0.359,0.031c-0.141,0.014-0.282,0.021-0.422,0.047    c-0.046,0.009-0.095,0.015-0.141,0.025c-0.109,0.022-0.214,0.064-0.32,0.096c-0.138,0.04-0.275,0.077-0.408,0.13    c-0.05,0.02-0.102,0.036-0.15,0.057c-0.093,0.041-0.181,0.099-0.271,0.146c-0.131,0.067-0.262,0.131-0.386,0.212    c-0.05,0.031-0.101,0.063-0.149,0.097c-0.02,0.014-0.042,0.021-0.061,0.035l-27.441,19.778c-2.1,1.514-2.574,4.442-1.063,6.541    c0.916,1.271,2.351,1.946,3.806,1.946c0.948,0,1.907-0.288,2.736-0.885l20.016-14.426v134.604c0,2.588,2.098,4.686,4.686,4.686    s4.686-2.098,4.686-4.686V315.615l20.026,14.429c0.828,0.598,1.785,0.885,2.734,0.885c1.455,0,2.891-0.676,3.806-1.947    C441.396,326.883,440.92,323.954,438.821,322.441z"/><g><path d="M372.159,208.528c21.893,0,39.703-17.81,39.703-39.704c0-11.34-4.877-22.169-13.38-29.708     c-0.904-0.802-1.464-1.923-1.561-3.128c-1.652-20.444-19.029-36.459-39.56-36.459c-4.909,0-9.717,0.896-14.292,2.662     c-1.285,0.497-2.727,0.403-3.938-0.261c-1.21-0.664-2.066-1.827-2.341-3.179c-5.123-25.27-27.585-43.61-53.41-43.61     c-15.62,0-30.519,6.733-40.875,18.472c-0.89,1.008-2.169,1.586-3.514,1.586s-2.624-0.578-3.514-1.586     c-10.356-11.739-25.255-18.472-40.875-18.472c-30.051,0-54.499,24.448-54.499,54.499c0,4.629,0.582,9.229,1.729,13.672     c0.371,1.436,0.04,2.964-0.893,4.117c-0.933,1.155-2.351,1.804-3.839,1.736c-0.559-0.023-1.118-0.043-1.683-0.043     c-21.893,0-39.704,17.811-39.704,39.702c0,21.894,17.811,39.704,39.704,39.704h28.113v-64.857     c0-10.333,8.408-18.742,18.742-18.742c10.334,0,18.742,8.408,18.742,18.742v21.702h103.08v-27.126     c0-10.333,8.408-18.742,18.742-18.742c10.335,0,18.742,8.408,18.742,18.742v70.282H372.159z"/><path d="M322.838,128.875c-5.175,0-9.371,4.195-9.371,9.371v36.498H191.645v-31.073c0-5.175-4.195-9.371-9.371-9.371     c-5.175,0-9.371,4.196-9.371,9.371v303.817c0,5.175,4.195,9.37,9.371,9.37c5.176,0,9.371-4.195,9.371-9.37v-36.991h121.822     v31.565c0,5.176,4.196,9.371,9.371,9.371c5.176,0,9.371-4.195,9.371-9.371V138.246     C332.209,133.07,328.014,128.875,322.838,128.875z M191.645,247.738h121.822v35.511H191.645V247.738z M191.645,301.991h121.822     v35.512H191.645V301.991z M313.467,193.485v35.511H191.645v-35.511H313.467z M191.645,391.756v-35.512h121.822v35.512H191.645z"/></g></g></g><g id="Layer_1"/></svg>